<svg width="960" height="1200" viewBox="0 0 960 1200" fill="none" xmlns="http://www.w3.org/2000/svg">
  <rect width="960" height="1200" fill="#0B0F12"/>
  <rect width="960" height="1200" fill="url(#bg)"/>
  <g opacity="0.16">
    <path d="M0 160H960" stroke="#94A3B8" stroke-width="1"/>
    <path d="M0 320H960" stroke="#94A3B8" stroke-width="1"/>
    <path d="M0 480H960" stroke="#94A3B8" stroke-width="1"/>
    <path d="M0 640H960" stroke="#94A3B8" stroke-width="1"/>
    <path d="M0 800H960" stroke="#94A3B8" stroke-width="1"/>
    <path d="M0 960H960" stroke="#94A3B8" stroke-width="1"/>
    <path d="M0 1120H960" stroke="#94A3B8" stroke-width="1"/>
    <path d="M160 0V1200" stroke="#94A3B8" stroke-width="1"/>
    <path d="M320 0V1200" stroke="#94A3B8" stroke-width="1"/>
    <path d="M480 0V1200" stroke="#94A3B8" stroke-width="1"/>
    <path d="M640 0V1200" stroke="#94A3B8" stroke-width="1"/>
    <path d="M800 0V1200" stroke="#94A3B8" stroke-width="1"/>
  </g>
  <rect x="92" y="92" width="776" height="1016" rx="44" fill="#10161D" stroke="#27313C" stroke-width="2"/>
  <circle cx="480" cy="394" r="146" fill="url(#accent)"/>
  <circle cx="480" cy="382" r="108" fill="#0F141A" opacity="0.92"/>
  <path d="M288 808C288 691.468 382.468 597 499 597H461C577.532 597 672 691.468 672 808V840H288V808Z" fill="#0F141A"/>
  <text x="480" y="950" text-anchor="middle" fill="#E7EDF5" font-family="ui-monospace, SFMono-Regular, Menlo, Monaco, Consolas, Liberation Mono, Courier New, monospace" font-size="74" letter-spacing="0.26em">M M</text>
  <text x="480" y="1008" text-anchor="middle" fill="#6EE7C8" font-family="ui-monospace, SFMono-Regular, Menlo, Monaco, Consolas, Liberation Mono, Courier New, monospace" font-size="22" letter-spacing="0.24em">PORTRAIT PLACEHOLDER</text>
  <defs>
    <radialGradient id="bg" cx="0" cy="0" r="1" gradientUnits="userSpaceOnUse" gradientTransform="translate(160 140) rotate(39.2) scale(1197.28 1190.04)">
      <stop stop-color="#6EE7C8" stop-opacity="0.12"/>
      <stop offset="0.29" stop-color="#0B0F12" stop-opacity="0"/>
      <stop offset="1" stop-color="#0B0F12" stop-opacity="0"/>
    </radialGradient>
    <radialGradient id="accent" cx="0" cy="0" r="1" gradientUnits="userSpaceOnUse" gradientTransform="translate(480 394) rotate(90) scale(146)">
      <stop stop-color="#6EE7C8"/>
      <stop offset="1" stop-color="#2A3E42"/>
    </radialGradient>
  </defs>
</svg>
